<?xml version="1.0" standalone="no"?><!DOCTYPE svg PUBLIC "-//W3C//DTD SVG 1.1//EN" "http://www.w3.org/Graphics/SVG/1.1/DTD/svg11.dtd"><svg t="1599979668058" class="icon" viewBox="0 0 1151 1024" version="1.1" xmlns="http://www.w3.org/2000/svg" p-id="4439" xmlns:xlink="http://www.w3.org/1999/xlink" width="224.8046875" height="200"><defs><style type="text/css"></style></defs><path d="M1087.998406 543.999203h-127.999812V301.253559l70.625896-70.625897c12.497982-12.495982 12.497982-32.757952 0-45.253934-12.495982-12.495982-32.757952-12.495982-45.253933 0L914.74466 255.999625H833.998778C833.998778 114.519832 719.500946 0 577.999153 0c-141.479793 0-255.999625 114.497832-255.999625 255.999625h-84.745876L150.627779 169.373752c-12.497982-12.495982-32.757952-12.495982-45.255933 0-12.495982 12.495982-12.495982 32.757952 0 45.253934L191.999719 301.253559V543.999203H63.999906c-17.671974 0-31.999953 14.325979-31.999953 31.999953s14.327979 31.999953 31.999953 31.999953h127.999813v47.99993c0 73.267893 22.511967 141.371793 60.96791 197.77771l-115.59383 115.593831c-12.497982 12.495982-12.497982 32.757952 0 45.253934 12.497982 12.497982 32.757952 12.495982 45.253933 0l111.231838-111.231837C357.701476 967.940582 446.255346 1007.998523 543.999203 1007.998523h63.999906c97.743857 0 186.297727-40.057941 250.141634-104.603846l111.231837 111.231837c12.497982 12.497982 32.757952 12.495982 45.253934 0 12.497982-12.495982 12.497982-32.757952 0-45.253934l-115.593831-115.593831C937.486627 797.370832 959.998594 729.266932 959.998594 655.999039v-47.99993h127.999812c17.673974 0 31.999953-14.325979 31.999953-31.999953s-14.325979-31.999953-31.999953-31.999953zM577.999153 63.999906c106.037845 0 191.999719 85.961874 191.999719 191.999719H385.999435c0-106.037845 85.961874-191.999719 191.999718-191.999719z m29.999956 879.998711V471.999309c0-13.253981-10.745984-23.999965-23.999964-23.999965h-15.999977c-13.253981 0-23.999965 10.745984-23.999965 23.999965v471.999308c-158.803767 0-287.999578-129.197811-287.999578-287.999578V319.999531h639.999063v335.999508c0 158.801767-129.197811 287.999578-287.999579 287.999578z" p-id="4440"></path></svg>