<?xml version="1.0" standalone="no"?><!DOCTYPE svg PUBLIC "-//W3C//DTD SVG 1.1//EN" "http://www.w3.org/Graphics/SVG/1.1/DTD/svg11.dtd"><svg t="1600001239036" class="icon" viewBox="0 0 1024 1024" version="1.1" xmlns="http://www.w3.org/2000/svg" p-id="4921" xmlns:xlink="http://www.w3.org/1999/xlink" width="200" height="200"><defs><style type="text/css"></style></defs><path d="M616 582l-480 0c-4.4 0-8 3.6-8 8l0 55.99999999c0 4.4 3.6 8 8 8.00000001L616 654c4.4 0 8-3.6 8-8l0-56c0-4.4-3.6-8-8-8z m8-204c0-4.4-3.6-8-8-8l-480 0c-4.4 0-8 3.6-8 8.00000001l0 55.99999999c0 4.4 3.6 8 8 8L616 442c4.4 0 8-3.6 8-8l0-56z m-504 486L904 864c4.4 0 8-3.6 8-8l0-56c0-4.4-3.6-8-8-8l-784 0c-4.4 0-8 3.6-8 8l0 56c0 4.4 3.6 8 8 8z m0-632L904 232c4.4 0 8-3.6 8-8l0-56c0-4.4-3.6-8-8-8l-784 0c-4.4 0-8 3.6-8 8l0 56c0 4.4 3.6 8 8 8zM881.6 381.9L725.3 505a8.84 8.84 0 0 0 0 13.9L881.6 642.1c5.8 4.6 14.4 0.5 14.4-6.9l0-246.3a8.9 8.9 0 0 0-14.4-7z" p-id="4922"></path></svg>