<?xml version="1.0" standalone="no"?><!DOCTYPE svg PUBLIC "-//W3C//DTD SVG 1.1//EN" "http://www.w3.org/Graphics/SVG/1.1/DTD/svg11.dtd"><svg t="1599961587616" class="icon" viewBox="0 0 1024 1024" version="1.1" xmlns="http://www.w3.org/2000/svg" p-id="2092" xmlns:xlink="http://www.w3.org/1999/xlink" width="200" height="200"><defs><style type="text/css"></style></defs><path d="M987.601896 1024H36.398104a36.398104 36.398104 0 0 1-36.398104-36.398104V36.398104A36.398104 36.398104 0 0 1 36.398104 0h951.203792a36.398104 36.398104 0 0 1 36.398104 36.398104v951.203792a36.398104 36.398104 0 0 1-36.398104 36.398104zM72.796209 951.203791h878.407582V72.796209H72.796209z" fill="" p-id="2093"></path><path d="M140.132701 324.331374V145.325498h46.541043L272.597536 254.78673V145.349763h46.298388v179.005877h-46.298388l-85.948057-109.436967v109.436967zM458.227867 184.732512H402.805687v29.919242h52.219147v39.407014H402.805687v30.865592h55.325119v39.407014h-101.914692V145.325498h101.914692zM521.706161 145.325498l30.865593 115.624644 37.975355-115.624644h36.956209l37.975355 115.624644L696.417062 145.325498h48.530805l-53.383886 179.005876h-47.438863L609.061611 220.596777l-35.136303 103.734597h-47.56019l-53.383886-179.005876zM858.267299 191.138578a57.630332 57.630332 0 0 0-15.190143-9.148057 40.401896 40.401896 0 0 0-14.729099-2.960379 23.877156 23.877156 0 0 0-14.7291 4.270711 13.321706 13.321706 0 0 0-5.702369 11.162085 11.089289 11.089289 0 0 0 2.839052 7.837726 24.774976 24.774976 0 0 0 7.473744 5.338388 63.405498 63.405498 0 0 0 10.434123 3.90673q5.823697 1.674313 11.526066 3.567014 22.785213 7.595071 33.364929 20.285877t10.555451 33.122275a64.44891 64.44891 0 0 1-4.634692 24.920569 52.000758 52.000758 0 0 1-13.540095 19.121137 62.410616 62.410616 0 0 1-21.838863 12.35109 90.995261 90.995261 0 0 1-29.312606 4.392038 107.811185 107.811185 0 0 1-62.92019-20.188815l19.946161-37.514313a80.755261 80.755261 0 0 0 20.649858 13.758483 49.598483 49.598483 0 0 0 20.188815 4.513365q11.404739 0 16.985782-5.217061a16.185024 16.185024 0 0 0 4.149384-18.878484 15.190142 15.190142 0 0 0-4.85308-5.459715 38.072417 38.072417 0 0 0-8.662749-4.634692q-5.338389-2.135355-12.93346-4.853081-9.02673-2.839052-17.689479-6.284739a55.519242 55.519242 0 0 1-15.432796-9.148057 42.415924 42.415924 0 0 1-10.919431-14.365118 50.787488 50.787488 0 0 1-4.149384-21.838863 63.429763 63.429763 0 0 1 4.392038-24.095545 53.383886 53.383886 0 0 1 12.35109-18.514502 55.058199 55.058199 0 0 1 19.412322-11.987109 73.596967 73.596967 0 0 1 25.769858-4.270711 112.858389 112.858389 0 0 1 27.783886 3.688341 122.734408 122.734408 0 0 1 27.783887 10.798104zM121.327014 348.062938v-11.865782h773.265593v11.865782zM361.554502 647.886256H145.592417v-215.962085h215.962085z m-167.431279-48.530806h118.900474v-118.900474H194.123223zM635.753555 490.161137h-174.710901a24.265403 24.265403 0 0 1 0-48.530805h174.710901a24.265403 24.265403 0 0 1 0 48.530805zM839.582938 647.886256H461.042654a24.265403 24.265403 0 0 1 0-48.530806h378.540284a24.265403 24.265403 0 0 1 0 48.530806zM851.71564 829.876777H172.28436a24.265403 24.265403 0 0 1 0-48.530805h679.43128a24.265403 24.265403 0 0 1 0 48.530805z" fill="" p-id="2094"></path></svg>