<?xml version="1.0" standalone="no"?><!DOCTYPE svg PUBLIC "-//W3C//DTD SVG 1.1//EN" "http://www.w3.org/Graphics/SVG/1.1/DTD/svg11.dtd"><svg t="1599961702257" class="icon" viewBox="0 0 1026 1024" version="1.1" xmlns="http://www.w3.org/2000/svg" p-id="2956" xmlns:xlink="http://www.w3.org/1999/xlink" width="200.390625" height="200"><defs><style type="text/css"></style></defs><path d="M964.20482158 290.26444414v-0.12081182c0-0.63426357-0.11074482-1.25845928-0.2013539-1.88265586l-0.06040635-0.50338388c-0.11074482-0.64433145-0.23155664-1.29873076-0.37250332-1.94306133-0.16108242-0.65439932-0.34230058-1.30879776-0.54365538-1.9531292-0.05033847-0.15101543-0.10067695-0.31209786-0.16108242-0.46311328-0.20135391-0.60406084-0.41277481-1.19805381-0.65439931-1.7819789V281.4753623c-0.26175938-0.6241957-0.55372237-1.22825654-0.85575234-1.83231738-0.08054121-0.17115029-0.16108242-0.32216573-0.25169151-0.49331601-0.29196299-0.53358662-0.59399297-1.07724112-0.91615869-1.60076075l-0.12081269-0.20135391c-0.36243633-0.5839251-0.74500839-1.14771533-1.14771445-1.70143681-0.11074482-0.16108242-0.23155664-0.31209786-0.34230148-0.46311328-0.39263906-0.52351963-0.80541387-1.00676777-1.22825654-1.53028741a1.72157256 1.72157256 0 0 0-0.11074482-0.14094755c-0.47318115-0.5436545-1.00676777-1.06717412-1.47994805-1.580625l-0.38257207-0.38257207c-0.53358662-0.51345175-1.07724112-1.00676777-1.65109922-1.51015166L720.36568057 71.03070635c-0.57385722-0.49331602-1.1577832-0.94636143-1.76184405-1.39940684l-0.47318027-0.34230146c-0.59399297-0.43291055-1.20812168-0.85575234-1.83231739-1.24839141l-0.19128603-0.12081269c-0.57385722-0.35236846-1.1577832-0.69466992-1.76184316-1.00676778-0.19128604-0.11074482-0.3725042-0.2114209-0.56379024-0.30202998a41.68018388 41.68018388 0 0 0-2.01353555-1.00676777l-0.27182724-0.12081181c-0.61412872-0.26175938-1.22825654-0.52351963-1.84238437-0.76514414l-0.60406084-0.22148878c-0.69466992-0.25169151-1.40947471-0.50338388-2.12428038-0.72487265h-0.19128516q-1.00676777-0.30202998-2.01353554-0.5436545l-0.57385811-0.14094756c-0.75507539-0.17115029-1.50008378-0.33223359-2.26522705-0.46311328h-0.06040634c-0.74500839-0.12081182-1.49001592-0.22148877-2.24509219-0.31209784-0.20135391 0-0.40270693 0-0.60405996-0.06040635-0.72487266-0.07047334-1.43967744-0.13087969-2.17461885-0.16108243H98.15302901C78.18882471 62 62 75.80278497 62 92.82722715v838.34554571c0 17.02444219 16.17875684 30.82722715 36.14296114 30.82722714h829.96923779c19.95413643 0 36.14296114-13.80278497 36.14296113-30.82722714V291.81486641c0-0.52351963 0-1.00676777-0.05033848-1.55042227zM730.95687705 167.24749678l109.90883144 93.74014247H730.95687705zM134.28592227 900.34554482V123.6443873h524.39510039v168.1302085c0 17.02444219 16.17875684 30.81716016 36.13289326 30.81716016h197.16538974v577.75378886z m0 0" p-id="2957"></path><path d="M248.16141846 381.53800566h232.45259766c19.95413643 0 36.13289326-13.80278497 36.13289325-30.82722803s-16.17875684-30.81716016-36.13289325-30.81715927H248.16141846c-19.95413643 0-36.13289326 13.79271797-36.13289327 30.81715927s16.17875684 30.82722715 36.13289327 30.82722804z m0 1e-8M248.16141846 542.95307334h305.97684433c19.96420342 0 36.14296114-13.80278497 36.14296114-30.82722715s-16.17875684-30.82722715-36.14296114-30.82722803H248.16141846c-19.95413643 0-36.13289326 13.80278497-36.13289327 30.82722803s16.17875684 30.82722715 36.13289327 30.82722715z m0 0M709.54292744 641.55590352H248.16141846c-19.95413643 0-36.15302901 13.8229207-36.15302901 30.82722715s16.17875684 30.81716016 36.13289326 30.81716016h461.40164473c19.96420342 0 36.14296114-13.80278497 36.14296113-30.81716016s-16.17875684-30.82722715-36.14296113-30.82722715z m0 0" p-id="2958"></path></svg>