<?xml version="1.0" standalone="no"?><!DOCTYPE svg PUBLIC "-//W3C//DTD SVG 1.1//EN" "http://www.w3.org/Graphics/SVG/1.1/DTD/svg11.dtd"><svg t="1599916408804" class="icon" viewBox="0 0 1024 1024" version="1.1" xmlns="http://www.w3.org/2000/svg" p-id="2090" xmlns:xlink="http://www.w3.org/1999/xlink" width="200" height="200"><defs><style type="text/css"></style></defs><path d="M757.142721 501.400594c-39.591717-7.653307-20.312628-28.559453-20.312628-28.559453s38.734186-63.074547-7.748475-108.983133c-57.487296-56.781214-197.431581 7.147794-197.431581 7.147794-53.370535 16.314571-39.249933-7.482415-31.680537-47.948035 0-47.772027-16.524348-128.522142-158.877497-80.923054C198.914864 290.249547 76.868203 458.387965 76.868203 458.387965-7.990486 570.08286 3.20039 656.447856 3.20039 656.447856c21.168112 190.756555 226.526223 243.119133 386.265344 255.530814 168.005388 12.925381 394.875442-57.126069 463.552591-201.294562C921.87353 566.341652 796.904307 509.221724 757.142721 501.400594L757.142721 501.400594 757.142721 501.400594zM401.854902 858.254072c-166.79891 7.649214-301.746392-74.803683-301.746392-184.631044 0-110.0003 134.947482-198.066031 301.746392-205.720362 166.972872-7.648191 302.098409 60.3546 302.098409 170.011068C703.952288 747.57532 568.827775 850.77268 401.854902 858.254072L401.854902 858.254072 401.854902 858.254072zM368.636337 540.16548C200.803887 559.543829 220.253868 714.597231 220.253868 714.597231s-1.718131 49.133024 44.930305 74.125231c98.114598 52.534494 199.326744 20.739347 250.279207-44.37465C566.587758 679.404708 536.642748 520.948813 368.636337 540.16548L368.636337 540.16548 368.636337 540.16548zM326.291926 757.948575c-31.329543 3.568269-56.631812-14.286378-56.631812-40.127929 0-25.669636 22.372543-52.702316 53.702086-55.930847 35.980469-3.400446 59.387575 17.003256 59.387575 43.012629C382.923738 730.578204 357.447507 754.379283 326.291926 757.948575L326.291926 757.948575 326.291926 757.948575zM425.268148 674.813133c-10.673084 7.816013-23.750937 6.79987-29.265534-2.716878-5.847172-9.188266-3.613294-23.810289 7.059789-31.456433 12.394285-9.184173 25.303292-6.459109 30.981618 2.717901C439.558619 652.538827 435.596378 666.647149 425.268148 674.813133L425.268148 674.813133 425.268148 674.813133zM838.903863 434.247148c13.596669 0 24.959461-9.862625 27.027563-22.780843 0.171915-1.023306 0.336668-1.871627 0.336668-2.894933 20.48966-181.740204-150.95506-150.455687-150.95506-150.455687-15.146978 0-27.370371 12.06785-27.370371 27.370371 0 14.963807 12.223393 27.031657 27.370371 27.031657 123.07406-26.864858 96.051613 94.691639 96.051613 94.691639C811.194778 422.173159 823.585993 434.247148 838.903863 434.247148L838.903863 434.247148 838.903863 434.247148zM818.939159 117.002784c-59.214636-13.769608-120.323413-1.868557-137.364531 1.354857-1.379417 0.172939-2.579755 1.36816-3.78521 1.533936-0.51677 0.172939-1.033539 0.677429-1.033539 0.677429-16.865109 4.764514-29.089525 20.060895-29.089525 38.255279 0 21.589714 17.724687 39.438221 39.932478 39.438221 0 0 21.516036-2.888793 36.152385-8.498558 14.452153-5.77554 137.355321-4.246721 198.287065 96.737228 33.232892 73.785493 14.637372 123.091456 12.229532 131.079384 0 0-7.92039 19.215644-7.92039 38.08234 0 21.762653 17.73185 35.536354 39.932478 35.536354 18.421558 0 33.913391-2.550079 38.388309-33.32192l0.171915 0C1070.594713 242.472404 924.969031 141.315516 818.939159 117.002784L818.939159 117.002784 818.939159 117.002784z" p-id="2091"></path></svg>